<?xml version='1.0' encoding='utf-8'?>
<svg xmlns="http://www.w3.org/2000/svg" width="270" height="84" viewBox="0 0 270 84" fill="none" role="img" aria-labelledby="av-title av-description">
  <title id="av-title">Aetheris Vision horizontal logo</title>
  <desc id="av-description">Full-color orbital A mark and outlined Aetheris Vision wordmark for light backgrounds.</desc>
  <metadata>Aetheris Vision LLC; approved 2026-08-25; Figma file USnql3F5jVZdVg8mxfawam; source node 209:27.</metadata>
  <g id="Logo/Horizontal/Color">
    <g id="Mark / Color">
      <path id="Vector" d="M57.0375 20.4C52.6046 16.306 46.9725 13.7462 40.9731 13.0988C34.9737 12.4514 28.9252 13.7507 23.7209 16.8048C18.5166 19.8588 14.4326 24.5057 12.072 30.059C9.71143 35.6124 9.1995 41.7777 10.6118 47.6443C12.0242 53.5109 15.2859 58.7677 19.9152 62.6383C24.5444 66.5088 30.2959 68.7879 36.3199 69.1389C42.3439 69.4898 48.321 67.894 53.3684 64.5872C58.4159 61.2804 62.266 56.4379 64.35 50.775" stroke="#29426C" stroke-width="5.0625" stroke-linecap="round" />
      <path id="Vector_2" d="M57.0375 24C59.0257 24 60.6375 22.3882 60.6375 20.4C60.6375 18.4118 59.0257 16.8 57.0375 16.8C55.0493 16.8 53.4375 18.4118 53.4375 20.4C53.4375 22.3882 55.0493 24 57.0375 24Z" fill="#6EC4D6" />
      <path id="Vector_3" d="M20.8125 54.9375L36 26.8125L51.1875 54.9375" stroke="#29426C" stroke-width="5.625" stroke-linecap="round" stroke-linejoin="round" />
      <path id="Vector_4" d="M24.1875 47.4C31.6125 42.675 40.3875 42.675 47.8125 47.4" stroke="#6EC4D6" stroke-width="4.5" stroke-linecap="round" />
    </g>
    <path id="Wordmark / AETHERIS" d="M98.7887 39H94.7106L102.136 17.9091H106.852L114.288 39H110.21L104.576 22.2344H104.412L98.7887 39ZM98.9226 30.7305H110.045V33.7994H98.9226V30.7305ZM119.466 39V17.9091H133.183V21.1119H123.286V26.8377H132.472V30.0405H123.286V35.7972H133.265V39H119.466ZM138.554 21.1119V17.9091H155.381V21.1119H148.863V39H145.073V21.1119H138.554ZM161.025 39V17.9091H164.846V26.8377H174.619V17.9091H178.45V39H174.619V30.0405H164.846V39H161.025ZM185.005 39V17.9091H198.723V21.1119H188.826V26.8377H198.012V30.0405H188.826V35.7972H198.805V39H185.005ZM205.021 39V17.9091H212.93C214.55 17.9091 215.909 18.1906 217.008 18.7536C218.113 19.3165 218.947 20.1061 219.51 21.1222C220.08 22.1314 220.365 23.3088 220.365 24.6545C220.365 26.007 220.077 27.181 219.5 28.1765C218.93 29.1651 218.089 29.9306 216.977 30.473C215.865 31.0085 214.499 31.2763 212.878 31.2763H207.245V28.1044H212.363C213.311 28.1044 214.087 27.974 214.691 27.7131C215.295 27.4453 215.741 27.0574 216.03 26.5494C216.325 26.0344 216.472 25.4028 216.472 24.6545C216.472 23.9061 216.325 23.2676 216.03 22.739C215.734 22.2035 215.285 21.7984 214.68 21.5238C214.076 21.2423 213.297 21.1016 212.343 21.1016H208.841V39H205.021ZM215.916 29.4432L221.138 39H216.874L211.745 29.4432H215.916ZM230.103 17.9091V39H226.282V17.9091H230.103ZM248.102 23.707C248.006 22.8076 247.601 22.1074 246.887 21.6062C246.18 21.105 245.26 20.8544 244.127 20.8544C243.33 20.8544 242.647 20.9745 242.078 21.2148C241.508 21.4551 241.072 21.7812 240.77 22.1932C240.468 22.6051 240.313 23.0754 240.306 23.604C240.306 24.0434 240.406 24.4245 240.605 24.7472C240.811 25.0698 241.089 25.3445 241.439 25.571C241.789 25.7907 242.177 25.9761 242.603 26.1271C243.028 26.2782 243.457 26.4052 243.89 26.5082L245.867 27.0025C246.664 27.1879 247.429 27.4384 248.164 27.7543C248.905 28.0701 249.568 28.4683 250.151 28.9489C250.742 29.4295 251.209 30.0096 251.552 30.6893C251.895 31.369 252.067 32.1654 252.067 33.0785C252.067 34.3143 251.751 35.4025 251.119 36.343C250.488 37.2768 249.575 38.0079 248.38 38.5366C247.192 39.0584 245.754 39.3192 244.065 39.3192C242.424 39.3192 241 39.0652 239.791 38.5572C238.59 38.0491 237.649 37.3076 236.97 36.3327C236.297 35.3578 235.933 34.1701 235.878 32.7695H239.637C239.692 33.5041 239.918 34.1152 240.317 34.6026C240.715 35.0901 241.233 35.454 241.872 35.6942C242.517 35.9345 243.238 36.0547 244.034 36.0547C244.865 36.0547 245.593 35.9311 246.217 35.6839C246.849 35.4299 247.343 35.0798 247.7 34.6335C248.057 34.1804 248.239 33.6518 248.246 33.0476C248.239 32.4983 248.078 32.0452 247.762 31.6882C247.446 31.3243 247.004 31.0223 246.434 30.782C245.871 30.5348 245.212 30.3151 244.456 30.1229L242.057 29.505C240.32 29.0587 238.947 28.3825 237.938 27.4762C236.935 26.5631 236.434 25.3513 236.434 23.8409C236.434 22.5982 236.77 21.5101 237.443 20.5763C238.123 19.6426 239.046 18.9183 240.214 18.4034C241.381 17.8816 242.702 17.6207 244.178 17.6207C245.675 17.6207 246.986 17.8816 248.112 18.4034C249.245 18.9183 250.134 19.6358 250.78 20.5558C251.425 21.4689 251.758 22.5193 251.779 23.707H248.102Z" fill="#101820" />
    <path id="Wordmark / VISION" d="M98.1974 54.5455L100.658 61.9872H100.755L103.211 54.5455H105.094L101.761 64H99.647L96.3185 54.5455H98.1974ZM113.152 54.5455V64H111.44V54.5455H113.152ZM125.245 57.1445C125.202 56.7414 125.021 56.4274 124.701 56.2028C124.384 55.9781 123.971 55.8658 123.463 55.8658C123.106 55.8658 122.8 55.9196 122.545 56.0273C122.289 56.1351 122.094 56.2812 121.958 56.4659C121.823 56.6506 121.754 56.8614 121.751 57.0984C121.751 57.2953 121.795 57.4661 121.884 57.6108C121.977 57.7554 122.101 57.8786 122.258 57.9801C122.415 58.0786 122.589 58.1617 122.78 58.2294C122.971 58.2971 123.163 58.354 123.357 58.4002L124.244 58.6218C124.601 58.7049 124.944 58.8172 125.273 58.9588C125.605 59.1004 125.902 59.2789 126.164 59.4943C126.429 59.7098 126.638 59.9698 126.792 60.2745C126.946 60.5792 127.023 60.9362 127.023 61.3455C127.023 61.8995 126.881 62.3873 126.598 62.8089C126.315 63.2275 125.905 63.5553 125.37 63.7923C124.837 64.0262 124.193 64.1431 123.436 64.1431C122.7 64.1431 122.061 64.0292 121.52 63.8015C120.981 63.5737 120.56 63.2414 120.255 62.8043C119.953 62.3673 119.79 61.8349 119.766 61.207H121.451C121.475 61.5363 121.577 61.8103 121.755 62.0288C121.934 62.2473 122.166 62.4104 122.452 62.5181C122.742 62.6258 123.065 62.6797 123.422 62.6797C123.794 62.6797 124.12 62.6243 124.4 62.5135C124.684 62.3996 124.905 62.2427 125.065 62.0426C125.225 61.8395 125.307 61.6025 125.31 61.3317C125.307 61.0855 125.235 60.8823 125.093 60.7223C124.951 60.5592 124.753 60.4238 124.497 60.3161C124.245 60.2053 123.95 60.1068 123.611 60.0206L122.535 59.7436C121.757 59.5436 121.141 59.2404 120.689 58.8342C120.239 58.4248 120.015 57.8816 120.015 57.2045C120.015 56.6475 120.166 56.1597 120.467 55.7411C120.772 55.3226 121.186 54.9979 121.709 54.767C122.232 54.5331 122.825 54.4162 123.486 54.4162C124.157 54.4162 124.745 54.5331 125.25 54.767C125.758 54.9979 126.156 55.3195 126.446 55.7319C126.735 56.1412 126.884 56.6121 126.893 57.1445H125.245ZM135.362 54.5455V64H133.65V54.5455H135.362ZM150.765 59.2727C150.765 60.2914 150.574 61.1639 150.193 61.8903C149.814 62.6135 149.297 63.1675 148.641 63.5522C147.989 63.9369 147.249 64.1293 146.421 64.1293C145.593 64.1293 144.851 63.9369 144.196 63.5522C143.543 63.1644 143.026 62.6089 142.645 61.8857C142.266 61.1593 142.077 60.2884 142.077 59.2727C142.077 58.254 142.266 57.383 142.645 56.6598C143.026 55.9335 143.543 55.378 144.196 54.9933C144.851 54.6085 145.593 54.4162 146.421 54.4162C147.249 54.4162 147.989 54.6085 148.641 54.9933C149.297 55.378 149.814 55.9335 150.193 56.6598C150.574 57.383 150.765 58.254 150.765 59.2727ZM149.043 59.2727C149.043 58.5556 148.931 57.9509 148.706 57.4585C148.485 56.9629 148.177 56.589 147.783 56.3366C147.389 56.0812 146.935 55.9535 146.421 55.9535C145.907 55.9535 145.453 56.0812 145.059 56.3366C144.665 56.589 144.356 56.9629 144.131 57.4585C143.91 57.9509 143.799 58.5556 143.799 59.2727C143.799 59.9898 143.91 60.5961 144.131 61.0916C144.356 61.584 144.665 61.958 145.059 62.2134C145.453 62.4658 145.907 62.592 146.421 62.592C146.935 62.592 147.389 62.4658 147.783 62.2134C148.177 61.958 148.485 61.584 148.706 61.0916C148.931 60.5961 149.043 59.9898 149.043 59.2727ZM165.254 54.5455V64H163.73L159.275 57.56H159.197V64H157.484V54.5455H159.017L163.467 60.9901H163.55V54.5455H165.254Z" fill="#486890" />
  </g>
</svg>