<svg width="300" height="300" viewBox="0 0 300 300" fill="none" xmlns="http://www.w3.org/2000/svg">
<rect width="300" height="300" fill="#F5F5F5"/>
<g id="EXPORT &#194;&#183; Family 3 &#194;&#183; LinkedIn &#194;&#183; Mark &#194;&#183; 300x300">
<rect width="300" height="300" fill="white"/>
<g id="Family 3 &#194;&#183; Eye and Vector Earth Mark">
<path id="eye-upper" d="M24.186 145.314C64.186 88.5696 166.512 75.0812 280 115.081C212.093 98.337 127.442 98.8021 66.5116 127.174C46.5116 136.477 33.9534 147.174 26.5116 156.942C24.186 154.151 21.8604 150.43 20.9302 148.104C21.3953 147.174 22.3255 146.244 24.186 145.314Z" fill="url(#paint0_linear_229_33)"/>
<path id="eye-lower" d="M21.3953 148.104C33.9535 169.035 60 186.244 95.3488 193.221C138.605 202.058 183.721 190.43 218.14 173.221C194.419 201.593 145.116 213.686 96.7442 205.314C60.4651 198.802 33.0233 178.337 21.3953 156.942C19.5349 153.686 19.5349 150.895 21.3953 148.104Z" fill="url(#paint1_linear_229_33)"/>
<path id="eye-inner-upper" d="M41.3955 148.104C60.9304 124.384 94.4188 113.221 131.163 113.686C177.675 113.686 219.535 122.523 252.093 134.616C213.023 124.384 174.884 121.128 140.465 123.453C98.1397 126.244 66.0467 137.407 49.3025 153.686C45.5816 152.29 43.256 150.43 41.3955 148.104Z" fill="#F7FAFC"/>
<path id="eye-inner-lower" d="M42.3256 150.43C58.1396 169.035 83.721 178.802 115.349 180.197C147.907 182.058 179.535 174.151 204.651 163.453C180.93 185.314 147.907 194.616 113.488 192.29C79.5349 189.965 53.4884 176.011 39.0698 156.942C40.0001 154.616 40.9303 152.29 42.3256 150.43Z" fill="#F7FAFC"/>
<path id="eye-inner-accent" d="M53.9537 151.825C64.6514 166.244 82.7909 174.616 103.721 176.011C118.605 177.407 133.489 174.616 146.047 169.035C130.698 181.593 106.977 185.779 86.0467 180.663C68.8374 176.942 56.2793 168.104 48.8374 157.872C49.7676 155.546 51.6281 153.686 53.9537 151.825Z" fill="url(#paint2_linear_229_33)"/>
<path id="upper-lid-accent" opacity="0.92" d="M135.349 123.453C176.744 121.593 213.953 126.709 242.325 136.942C213.488 129.5 181.395 128.104 152.093 131.36C147.442 128.104 141.86 125.314 135.349 123.453Z" fill="#35577E"/>
<g id="globe &#194;&#183; North America &#194;&#183; vector natural">
<path id="Vector" d="M127.442 179.042C146.07 179.042 161.17 163.941 161.17 145.314C161.17 126.686 146.07 111.586 127.442 111.586C108.814 111.586 93.7139 126.686 93.7139 145.314C93.7139 163.941 108.814 179.042 127.442 179.042Z" fill="url(#paint3_radial_229_33)"/>
<g id="Clip path group">
<mask id="mask0_229_33" style="mask-type:luminance" maskUnits="userSpaceOnUse" x="93" y="111" width="69" height="69">
<g id="sphere">
<path id="Vector_2" d="M127.442 179.042C146.07 179.042 161.17 163.941 161.17 145.314C161.17 126.686 146.07 111.586 127.442 111.586C108.814 111.586 93.7139 126.686 93.7139 145.314C93.7139 163.941 108.814 179.042 127.442 179.042Z" fill="white"/>
</g>
</mask>
<g mask="url(#mask0_229_33)">
<g id="Group">
<g id="Group_2" opacity="0.18">
<path id="Vector_3" d="M94.5599 152.82L94.1234 150.051L94.0625 147.274L94.3672 144.476L95.0347 141.689L96.0564 138.939L97.4226 136.26L99.7524 132.847L101.857 130.444L104.24 128.203L106.879 126.15L109.743 124.306L112.8 122.692L116.018 121.327L119.361 120.225L122.794 119.397L127.442 118.735" stroke="#E7F4F6" stroke-width="0.368459"/>
<path id="Vector_4" d="M106.566 171.806L105.408 170.774L104.425 169.675L103.553 168.456L102.799 167.124L101.653 164.148L101.009 160.806L100.88 157.163L101.267 153.288L102.164 149.259L103.553 145.154L105.408 141.05L107.691 137.031L110.358 133.172L113.358 129.549L116.632 126.233L120.117 123.288L123.743 120.773L127.442 118.735" stroke="#E7F4F6" stroke-width="0.368459"/>
<path id="Vector_5" d="M119.3 178.044L118.354 177.626L117.763 177.147L116.727 175.726L115.728 173.121L115.182 170.424L114.876 167.24L114.815 163.628L115.083 158.621L115.569 154.315L116.286 149.836L117.485 144.122L118.665 139.57L120.016 135.129L121.51 130.886L123.538 125.987L125.248 122.482L127.442 118.735" stroke="#E7F4F6" stroke-width="0.368459"/>
<path id="Vector_6" d="M130.35 178.916L130.703 178.717L130.931 178.379L131.333 177.224L131.661 175.447L131.954 172.407L132.133 164.937L131.853 155.547L131.24 146.327L130.201 135.898L128.893 126.391L127.442 118.735" stroke="#E7F4F6" stroke-width="0.368459"/>
<path id="Vector_7" d="M142.063 175.709L143.349 174.932L144.241 174.174L145.777 172.24L146.955 169.781L147.754 166.846L148.005 165.216L148.195 162.594L148.093 158.809L147.59 154.76L146.695 150.529L145.426 146.195L143.806 141.845L141.867 137.562L139.054 132.429L135.888 127.689L133.166 124.276L130.331 121.272L127.442 118.735" stroke="#E7F4F6" stroke-width="0.368459"/>
<path id="Vector_8" d="M155.64 163.819L157.184 160.925L157.785 159.291L158.239 157.589L158.543 155.828L158.696 154.015L158.638 151.219L158.031 147.397L157.184 144.499L156.01 141.609L153.962 137.826L152.085 135.081L149.165 131.599L145.824 128.384L143.077 126.185L139.156 123.585L136.061 121.91L131.794 120.077L127.442 118.735" stroke="#E7F4F6" stroke-width="0.368459"/>
<path id="Vector_9" d="M160.324 137.807L159.547 135.209L158.828 133.507L157.955 131.864L156.367 129.522L154.463 127.353L153.027 126.016L151.468 124.772L148.91 123.096L147.074 122.114L144.142 120.851L142.084 120.158L138.866 119.35L135.522 118.826L133.242 118.637L130.934 118.579L127.442 118.735" stroke="#E7F4F6" stroke-width="0.368459"/>
<path id="Vector_10" d="M148.318 118.822L145.905 117.314L143.806 116.499L141.526 116L139.094 115.821L136.532 115.966L133.872 116.432L131.141 117.214L127.442 118.735" stroke="#E7F4F6" stroke-width="0.368459"/>
<path id="Vector_11" d="M135.583 112.583L134.868 112.495L133.76 112.67L132.58 113.203L131.763 113.754L129.636 115.796L127.442 118.735" stroke="#E7F4F6" stroke-width="0.368459"/>
<path id="Vector_12" d="M124.534 111.712L125.095 112.015L125.837 113.306L126.627 115.569L127.442 118.735" stroke="#E7F4F6" stroke-width="0.368459"/>
<path id="Vector_13" d="M112.821 114.919L114.094 114.435L115.83 114.129L117.693 114.165L119.663 114.542L121.718 115.255L123.837 116.298L125.271 117.171L127.442 118.735" stroke="#E7F4F6" stroke-width="0.368459"/>
<path id="Vector_14" d="M99.2432 126.809L100.358 125.288L101.516 124.003L102.799 122.821L104.202 121.749L105.718 120.791L107.341 119.954L110.869 118.651L114.723 117.869L118.823 117.621L123.09 117.912L127.442 118.735" stroke="#E7F4F6" stroke-width="0.368459"/>
<path id="Vector_15" d="M94.5599 152.82L94.1234 150.051L94.0625 147.274L94.3672 144.476L95.0347 141.689L96.0564 138.939L97.4226 136.26L99.7524 132.847L101.857 130.444L104.24 128.203L106.879 126.15L109.743 124.306L112.8 122.692L116.018 121.327L119.361 120.225L122.794 119.397L127.442 118.735" stroke="#E7F4F6" stroke-width="0.368459"/>
<path id="Vector_16" d="M101.375 166.717L103.225 168.658L105.735 170.635L108.666 172.379L111.963 173.854L115.562 175.031L119.391 175.889L123.376 176.41L127.442 176.586L131.507 176.41L135.492 175.889L139.322 175.031L142.92 173.854L146.217 172.379L149.148 170.635L151.658 168.658L153.509 166.717" stroke="#E7F4F6" stroke-width="0.368459"/>
<path id="Vector_17" d="M94.0425 148.203L94.4506 149.63L95.3647 151.731L96.6302 153.76L97.6619 155.062L99.4801 156.926L101.604 158.662L103.18 159.739L105.762 161.221L108.581 162.529L111.608 163.649L113.724 164.284L117.019 165.063L122.748 165.877L126.264 166.067L129.794 166.028L135.602 165.461L137.865 165.063L141.16 164.284L143.276 163.649L146.303 162.529L149.121 161.221L151.704 159.739L154.021 158.098L156.046 156.318L157.222 155.062L158.714 153.092L159.519 151.731L160.433 149.63L160.986 147.485L161.17 145.314" stroke="#E7F4F6" stroke-width="0.368459"/>
<path id="Vector_18" d="M93.7139 145.314L93.7961 146.762L94.0426 148.203" stroke="#E7F4F6" stroke-width="0.368459"/>
<path id="Vector_19" d="M98.5161 134.528L99.1 136.376L99.9942 138.176L101.189 139.907L102.671 141.554L104.424 143.096L106.429 144.517L109.458 146.195L111.963 147.275L114.638 148.188L117.451 148.923L120.376 149.473L123.376 149.833L126.423 149.997L129.479 149.963L133.514 149.615L136.467 149.127L139.322 148.453L142.92 147.275L145.425 146.195L147.732 144.961L149.817 143.583L151.658 142.081L153.232 140.467L154.525 138.761L155.52 136.981L156.207 135.147L156.58 133.279L156.633 131.397L156.367 129.522L155.783 127.674L154.889 125.875L153.509 123.911" stroke="#E7F4F6" stroke-width="0.368459"/>
<path id="Vector_20" d="M101.375 123.911L99.6614 126.467L98.6765 128.902L98.393 130.145L98.2329 132.025L98.5163 134.528" stroke="#E7F4F6" stroke-width="0.368459"/>
<path id="Vector_21" d="M110.742 123.742L111.403 125.505L112.036 126.519L112.837 127.487L114.523 128.97L116.602 130.249L119.524 131.464L122.231 132.171L125.095 132.578L128.618 132.654L131.522 132.371L134.835 131.628L137.355 130.696L139.974 129.243L142.047 127.487L143.289 125.848L144.05 124.099L144.265 123.021L144.296 121.934L143.938 120.138L143.481 119.088L142.848 118.073L141.085 116.194L138.727 114.58L135.874 113.305L132.653 112.422L129.205 111.971H125.679L122.231 112.422L119.01 113.305L116.602 114.343L114.153 115.904L112.552 117.421L111.807 118.406L111.231 119.435L110.834 120.494L110.619 121.572L110.588 122.659L110.742 123.742Z" stroke="#E7F4F6" stroke-width="0.368459"/>
</g>
<g id="Group_3">
<path id="Vector_22" d="M138.95 161.315L138.629 160.963L138.756 160.798L138.222 160.564L137.543 161.061L137.771 161.401L137.546 161.585L136.802 161.298L136.168 161.425L134.926 160.576L134.86 160.861L134.542 160.71L134.485 160.113L133.337 159.288L133.429 159.07L131.299 158.931L129.311 157.806L128.259 158.13L124.372 156.597L123.308 155.599L123.471 154.782L123.098 153.984L121.501 152.207L121.528 151.711L120.187 150.06L119.9 148.706L119.168 148.206L119.075 149.158L120.346 151.423L120.707 152.843L121.295 153.559L120.961 153.723L119.936 152.476L119.955 151.741L118.685 150.523L118.929 150.557L119.197 150.121L118.61 149.429L118.1 147.248L117.643 146.558L116.763 145.994L116.056 143.153L116.007 142.301L117.12 139.437L117.342 137.875L117.869 138.12L117.889 138.7L118.115 138.106L118.147 137.617L116.972 136.131L117.183 135.282L116.888 134.913L116.986 133.685L116.768 133.166L116.952 131.607L116.161 130.988L116.029 130.244L115.319 129.514L115.034 128.708L114.745 128.649L114.512 128.977L113.503 128.795L114.564 128.061L113.184 128.365L113.106 128.678L112.644 128.829L111.035 129.011L109.398 128.467L111.432 128.555L112.511 128.066L111.986 127.932L112.085 127.466L111.684 127.349L112.134 127.004L112.118 126.117L112.824 125.515L113.463 125.332L113.585 125.586L114.184 125.673L114.666 125.313L114.054 124.84L114.374 124.007L115.148 124.221L114.968 124.472L115.202 124.74L115.848 123.383L118.241 123.59L118.161 124.034L119.881 126.368L121.42 126.288L121.419 126.518L121.784 126.262L121.936 126.862L122.347 126.626L122.185 126.986L122.591 126.86L123.842 127.653L124.04 127.954L123.668 128.146L124.824 128.291L124.993 128.623L125.275 127.999L125.713 127.968L126.669 128.615L127.342 128.56L127.512 128.155L127.851 128.324L127.867 128.807L128.234 127.891L127.748 127.394L127.952 126.484L128.407 126.76L129.046 128.144L129.265 127.725L129.858 128.722L129.949 127.33L130.894 127.548L131.193 128.567L130.857 128.995L130.284 129.002L129.878 130.351L129.519 130.421L129.372 131.006L128.778 131.548L128.448 133.237L128.9 133.309L129.263 134.229L129.695 134.088L131.757 134.98L132.667 134.925L132.959 135.953L134.002 136.964L134.251 136.116L133.524 135.041L133.963 134.677L134.245 133.799L133.269 132.718L133.419 132.089L132.773 130.847L132.909 130.689L133.827 130.516L134.739 130.998L135.206 130.891L135.797 131.933L136.419 132.161L136.635 130.796L138.405 132.119L138.483 132.48L140.166 132.761L141.002 133.206L141.375 133.75L140.712 135.351L138.748 136.2L137.882 138.604L138.955 136.805L139.418 136.563L139.825 136.709L139.679 137.192L140.326 138.091L140.885 138.176L141.401 137.855L141.437 137.11L141.95 137.573L140.625 139.678L140.336 139.744L140.139 139.287L140.563 138.595L139.646 139.049L139.778 139.206L138.848 140.23L138.828 141.069L139.289 141.353L137.924 142.2L138.634 141.995L137.853 142.329L137.732 143.466L137.39 143.215L137.744 143.789L137.529 144.564L137.091 143.501L137.245 144.109L136.939 144.088L137.279 144.201L137.842 145.495L135.694 148.423L135.825 149.231L136.71 150.917L136.679 151.901L136.276 151.981L135.954 151.651L135.23 150.6L135.104 149.908L134.452 149.429L133.982 149.765L133.292 149.409L131.906 149.612L131.704 149.721L131.933 150.209L131.463 150.352L129.562 150.128L127.889 151.267L127.511 154.359L128.39 156.107L129.44 156.732L131.448 155.981L131.672 154.999L133.399 154.517L133.54 154.892L133.093 156.396L132.831 156.291L132.859 157.377L132.555 157.761L134.744 157.437L135.637 157.7L135.8 158.196L135.556 159.95L136.509 160.894L137.214 160.836L137.953 160.3L139.198 160.517L138.95 161.315Z" fill="url(#paint4_linear_229_33)" stroke="#B8C98D" stroke-width="0.170058" stroke-linejoin="round"/>
<path id="Vector_23" d="M139.198 160.517L140.08 159.902L140.424 158.95L141.205 158.66L142.007 157.776L142.343 157.848L141.962 158.336L142.201 159.505L142.508 158.998L142.268 158.485L142.886 158.072L142.95 157.627L143.923 158.159L145.581 157.789L146.977 156.854L146.596 157.181L146.786 157.35L147.547 157.307L147.665 157.676L148.416 157.619L149.384 158.169L151.234 157.395L151.924 157.609L152.506 158.39L152.229 159.293L153.043 158.942L153.051 159.395L153.344 158.882L154.402 158.499L154.497 158.924L156.016 157.629L157.294 157.304L157.09 158.822L154.458 164.526L153.19 166.374L149.813 169.992L144.572 174.201L139.24 176.901L139.697 176.736L135.766 177.999L138.082 177.099L137.308 177.374L140.173 175.241L142.264 171.579L142.286 171.143L141.824 170.977L139.66 170.664L137.915 168.209L137.107 167.926L137.295 167.702L137.039 167.342L137.981 166.248L137.314 166.195L137.339 165.651L139.431 162.888L138.95 161.315L139.198 160.517Z" fill="url(#paint5_linear_229_33)" stroke="#B8C98D" stroke-width="0.170058" stroke-linejoin="round"/>
<path id="Vector_24" d="M144.256 153.624L144.612 153.651L143.879 154.09L143.865 153.767L144.256 153.624Z" fill="url(#paint6_linear_229_33)" stroke="#B8C98D" stroke-width="0.170058" stroke-linejoin="round"/>
<path id="Vector_25" d="M138.608 155.339L139.362 155.499L138.221 155.574L138.608 155.339Z" fill="url(#paint7_linear_229_33)" stroke="#B8C98D" stroke-width="0.170058" stroke-linejoin="round"/>
<path id="Vector_26" d="M135.848 153.221L137.92 153.203L140.22 153.917L138.419 154.61L138.727 154.222L137.797 153.754L135.949 153.664L136.129 153.488L134.495 154.174L135.848 153.221Z" fill="url(#paint8_linear_229_33)" stroke="#B8C98D" stroke-width="0.170058" stroke-linejoin="round"/>
<path id="Vector_27" d="M141.656 134.151L141.779 135.092L141.863 134.82L142.123 135.054L142.88 134.844L143.791 136.075L143.426 136.192L143.125 135.722L143.045 136.359L142.577 136.116L141.671 136.608L141.35 134.718L141.656 134.151Z" fill="url(#paint9_linear_229_33)" stroke="#B8C98D" stroke-width="0.170058" stroke-linejoin="round"/>
<path id="Vector_28" d="M130.904 129.68L132.03 130.228L131.858 130.434L131.227 130.17L130.744 130.809L130.589 130.514L130.252 130.608L130.351 129.425L130.904 129.68Z" fill="url(#paint10_linear_229_33)" stroke="#B8C98D" stroke-width="0.170058" stroke-linejoin="round"/>
<path id="Vector_29" d="M130.809 125.93L130.891 125.712L131.817 126.211L132.079 126.018L132.931 126.298L133.621 126.793L133.412 127.126L135.26 127.462L135.43 128.495L134.227 128.224L135.742 129.321L135.871 129.697L134.725 129.494L135.813 130.163L134.409 130.078L133.116 129.454L132.527 129.847L132.284 129.311L133.15 129.015L132.704 127.706L131.176 126.972L130.052 127.273L129.082 126.987L129.24 126.745L128.974 126.767L128.838 126.28L129.035 125.627L129.426 125.452L129.586 126.052L129.993 125.391L130.523 126.135L130.809 125.93Z" fill="url(#paint11_linear_229_33)" stroke="#B8C98D" stroke-width="0.170058" stroke-linejoin="round"/>
<path id="Vector_30" d="M128.004 125.414L128.665 125.508L128.119 126.427L127.782 125.994L128.004 125.414Z" fill="url(#paint12_linear_229_33)" stroke="#B8C98D" stroke-width="0.170058" stroke-linejoin="round"/>
<path id="Vector_31" d="M127.015 126.104L127.056 125.559L127.544 125.603L127.678 126.617L127.192 126.766L126.648 126.199L127.015 126.104Z" fill="url(#paint13_linear_229_33)" stroke="#B8C98D" stroke-width="0.170058" stroke-linejoin="round"/>
<path id="Vector_32" d="M126.035 124.545L126.321 124.516L126.181 124.956L125.216 125.119L125.012 124.939L125.383 124.786L124.541 124.601L125.084 124.105L125.818 124.697L125.894 124.086L126.035 124.545Z" fill="url(#paint14_linear_229_33)" stroke="#B8C98D" stroke-width="0.170058" stroke-linejoin="round"/>
<path id="Vector_33" d="M124.041 124.032L125.188 123.572L124.87 124.037L124.041 124.032Z" fill="url(#paint15_linear_229_33)" stroke="#B8C98D" stroke-width="0.170058" stroke-linejoin="round"/>
<path id="Vector_34" d="M123.831 124.812L124.555 125.467L122.763 126.351L122.526 125.764L123.308 124.741L123.831 124.812Z" fill="url(#paint16_linear_229_33)" stroke="#B8C98D" stroke-width="0.170058" stroke-linejoin="round"/>
<path id="Vector_35" d="M111.937 125.974L111.669 126.239" stroke="#B8C98D" stroke-width="0.170058" stroke-linejoin="round"/>
<path id="Vector_36" d="M112.747 129.063L112.791 129.395L112.104 129.459L112.284 129.045L112.747 129.063Z" fill="url(#paint17_linear_229_33)" stroke="#B8C98D" stroke-width="0.170058" stroke-linejoin="round"/>
<path id="Vector_37" d="M116.164 133.825L116.459 133.899L116.125 134.976L115.895 134.106L116.164 133.825Z" fill="url(#paint18_linear_229_33)" stroke="#B8C98D" stroke-width="0.170058" stroke-linejoin="round"/>
<path id="Vector_38" d="M117.449 136.829L117.819 137.82L117.135 137.417L116.581 136.509L116.661 136.057L117.449 136.829Z" fill="url(#paint19_linear_229_33)" stroke="#B8C98D" stroke-width="0.170058" stroke-linejoin="round"/>
<path id="Vector_39" d="M113.139 124.039L113.078 124.677" stroke="#B8C98D" stroke-width="0.170058" stroke-linejoin="round"/>
<path id="Vector_40" d="M126.625 123.019L127.236 123.674L126.593 123.43L126.625 123.019Z" fill="url(#paint20_linear_229_33)" stroke="#B8C98D" stroke-width="0.170058" stroke-linejoin="round"/>
<path id="Vector_41" d="M141.504 153.875L142.378 153.637L143.27 153.929L142.133 154.413L141.837 154.976L140.229 155.02L141.281 154.538L140.749 153.981L141.504 153.875Z" fill="url(#paint21_linear_229_33)" stroke="#B8C98D" stroke-width="0.170058" stroke-linejoin="round"/>
<path id="Vector_42" d="M100.754 146.695L100.837 147.153L100.476 147.197L100.65 146.47L100.754 146.695Z" fill="url(#paint22_linear_229_33)" stroke="#B8C98D" stroke-width="0.170058" stroke-linejoin="round"/>
<path id="Vector_43" d="M100.697 146.181L100.52 145.893" stroke="#B8C98D" stroke-width="0.170058" stroke-linejoin="round"/>
<path id="Vector_44" d="M100.551 145.754L100.377 145.63" stroke="#B8C98D" stroke-width="0.170058" stroke-linejoin="round"/>
<path id="Vector_45" d="M100.299 145.118L100.302 145.436" stroke="#B8C98D" stroke-width="0.170058" stroke-linejoin="round"/>
<path id="Vector_46" d="M137.783 151.668L138.235 152.411L137.728 152.051L137.783 151.668Z" fill="url(#paint23_linear_229_33)" stroke="#B8C98D" stroke-width="0.170058" stroke-linejoin="round"/>
<path id="Vector_47" d="M140.291 137.599L141.099 137.63L141.038 137.92L140.402 137.963L140.291 137.599Z" fill="url(#paint24_linear_229_33)" stroke="#B8C98D" stroke-width="0.170058" stroke-linejoin="round"/>
<path id="Vector_48" d="M139.434 136.153L140.481 136.194" stroke="#B8C98D" stroke-width="0.170058" stroke-linejoin="round"/>
<path id="Vector_49" d="M132.239 131.09L132.4 130.903L132.485 131.291L132.239 131.09Z" fill="url(#paint25_linear_229_33)" stroke="#B8C98D" stroke-width="0.170058" stroke-linejoin="round"/>
<path id="Vector_50" d="M131.217 131.067L131.708 130.738L131.501 131.182L131.217 131.067Z" fill="url(#paint26_linear_229_33)" stroke="#B8C98D" stroke-width="0.170058" stroke-linejoin="round"/>
<path id="Vector_51" d="M132.451 128.112L132.148 128.373L131.979 127.852L132.451 128.112Z" fill="url(#paint27_linear_229_33)" stroke="#B8C98D" stroke-width="0.170058" stroke-linejoin="round"/>
<path id="Vector_52" d="M127.736 127.598L127.81 128.061L127.069 127.737L127.398 127.368L127.736 127.598Z" fill="url(#paint28_linear_229_33)" stroke="#B8C98D" stroke-width="0.170058" stroke-linejoin="round"/>
<path id="Vector_53" d="M125.986 125.865L126.205 126.905L126.842 127.419L126.498 128.044L125.782 127.781L124.182 127.908L123.713 127.492L123.614 127.059L124.62 127.038L123.617 126.758L124.082 126.461L123.549 126.216L124.035 125.743L124.581 125.55L124.558 125.876L125.146 126.072L125.401 125.856L125.564 126.521L125.672 125.825L125.986 125.865Z" fill="url(#paint29_linear_229_33)" stroke="#B8C98D" stroke-width="0.170058" stroke-linejoin="round"/>
<path id="Vector_54" d="M130.561 125.756L130.236 125.376L131.132 125.615L130.561 125.756Z" fill="url(#paint30_linear_229_33)" stroke="#B8C98D" stroke-width="0.170058" stroke-linejoin="round"/>
<path id="Vector_55" d="M127.362 124.276L127.417 125.016L127.164 125.061L126.807 124.377L127.362 124.276Z" fill="url(#paint31_linear_229_33)" stroke="#B8C98D" stroke-width="0.170058" stroke-linejoin="round"/>
<path id="Vector_56" d="M127.633 122.481L127.941 122.186L128.445 122.55L128.76 122.95L128.509 123.453L128.05 123.463L127.633 122.481Z" fill="url(#paint32_linear_229_33)" stroke="#B8C98D" stroke-width="0.170058" stroke-linejoin="round"/>
<path id="Vector_57" d="M127.973 121.911L129.132 121.136L130.083 121.201L130.137 122.437L129.691 122.785L130.021 123.08L129.857 124.238L128.609 124.276L128.638 123.616L129.081 123.728L128.626 123.402L128.835 122.936L128.539 122.57L128.996 122.407L128.445 122.464L127.973 121.911Z" fill="url(#paint33_linear_229_33)" stroke="#B8C98D" stroke-width="0.170058" stroke-linejoin="round"/>
<path id="Vector_58" d="M130.816 120.624L130.703 120.093L131.038 119.672L131.605 119.534L131.738 120.137L131.926 119.723L132.448 119.887L132.144 119.395L132.535 119.272L133.069 119.865L136.392 120.837L136.775 121.456L137.441 121.579L137.243 121.81L138.29 121.87L138.304 122.123L137.683 122.112L138.272 122.516L138.548 122.067L138.862 122.612L138.943 123.77L139.524 125.051L139.346 125.683L141.151 128.267L139.581 128.528L136.992 127.031L135.925 125.199L135.811 125.689L135.089 125.148L135.595 124.995L134.567 124.931L134.362 124.477L132.797 123.592L131.442 123.872L130.836 123.59L131.264 123.259L130.361 123.22L130.758 122.421L130.334 122.217L130.235 121.433L130.805 121.075L130.72 120.808H131.373L130.816 120.624Z" fill="url(#paint34_linear_229_33)" stroke="#B8C98D" stroke-width="0.170058" stroke-linejoin="round"/>
<path id="Vector_59" d="M126.018 125.614L126.352 125.727L126.158 126.033L126.018 125.614Z" fill="url(#paint35_linear_229_33)" stroke="#B8C98D" stroke-width="0.170058" stroke-linejoin="round"/>
</g>
<g id="Group_4" opacity="0.48">
<path id="Vector_60" d="M116.986 133.685L117.424 133.169L117.125 132.659L117.115 130.638L116.372 130.835L116.37 130.128L116.048 129.749L119.467 125.651" stroke="#F3F0DE" stroke-width="0.325945" stroke-linecap="round" stroke-linejoin="round"/>
<path id="Vector_61" d="M118.124 147.56L119.278 147.679L119.215 147.782L120.95 148.773L122.32 148.942L122.343 148.702L123.199 148.789L123.886 149.497L124.143 150.142L124.813 150.535L125.155 150.092L125.571 150.099L125.925 150.345L126.648 151.43L126.903 152.11L127.897 152.4" stroke="#F3F0DE" stroke-width="0.325945" stroke-linecap="round" stroke-linejoin="round"/>
<path id="Vector_62" d="M131.947 158.982L132.352 158.575" stroke="#F3F0DE" stroke-width="0.325945" stroke-linecap="round" stroke-linejoin="round"/>
<path id="Vector_63" d="M130.726 158.641L130.972 157.793L131.692 157.738L131.699 157.551L131.114 157.133L131.366 157.113L131.355 156.803L132.386 156.72" stroke="#F3F0DE" stroke-width="0.325945" stroke-linecap="round" stroke-linejoin="round"/>
<path id="Vector_64" d="M132.555 157.761L132.388 157.776L132.386 156.72" stroke="#F3F0DE" stroke-width="0.325945" stroke-linecap="round" stroke-linejoin="round"/>
<path id="Vector_65" d="M132.352 158.575L132.844 158.839L133.207 158.775L133.256 159.043" stroke="#F3F0DE" stroke-width="0.325945" stroke-linecap="round" stroke-linejoin="round"/>
<path id="Vector_66" d="M133.534 159.226L133.856 159.037L133.83 158.777L134.362 158.665L134.82 158.085L135.793 157.824" stroke="#F3F0DE" stroke-width="0.325945" stroke-linecap="round" stroke-linejoin="round"/>
<path id="Vector_67" d="M136.101 161.36L136.224 160.979L136.089 160.715L136.305 160.633" stroke="#F3F0DE" stroke-width="0.325945" stroke-linecap="round" stroke-linejoin="round"/>
<path id="Vector_68" d="M135.646 160.022L135.518 160.154L134.485 160.113" stroke="#F3F0DE" stroke-width="0.325945" stroke-linecap="round" stroke-linejoin="round"/>
<path id="Vector_69" d="M139.199 160.517L139.281 160.875L138.951 161.315" stroke="#F3F0DE" stroke-width="0.325945" stroke-linecap="round" stroke-linejoin="round"/>
<path id="Vector_70" d="M142.261 158.055L141.938 158.244L141.51 158.986L141.354 159.712L141.629 159.668L141.87 160.456L142.138 160.598L143.111 160.309L143.501 160.616L144.544 160.253L144.344 161.122L144.63 161.601L144.382 161.933L144.708 162.089L144.871 162.504" stroke="#F3F0DE" stroke-width="0.325945" stroke-linecap="round" stroke-linejoin="round"/>
<path id="Vector_71" d="M148.097 157.582L147.763 158.05L147.914 158.36L147.527 158.72L147.438 159.137L147.781 159.362" stroke="#F3F0DE" stroke-width="0.325945" stroke-linecap="round" stroke-linejoin="round"/>
<path id="Vector_72" d="M149.761 159.986L148.872 160.754L148.36 160.761L148.195 160.375L148.37 159.699L148.09 159.529L148.136 159.287L147.781 159.362" stroke="#F3F0DE" stroke-width="0.325945" stroke-linecap="round" stroke-linejoin="round"/>
<path id="Vector_73" d="M151.778 157.685L151.299 158.986L150.629 159.298" stroke="#F3F0DE" stroke-width="0.325945" stroke-linecap="round" stroke-linejoin="round"/>
<path id="Vector_74" d="M118.146 137.617L120.585 138.208L123.961 138.708L127.739 138.877L128.538 138.861L128.66 138.633L128.867 139.04L129.934 139.291L130.864 139.285L131.191 139.087L132.674 139.725L133.756 140.473L134.121 141.466L133.87 142.397L134.094 142.601L135.515 141.619L135.342 141.295L135.502 141.164L136.262 140.99L136.812 140.022L138.08 139.656L138.307 139.308L138.417 138.045L139.001 138.078L139.293 138.823L139.646 139.049" stroke="#F3F0DE" stroke-width="0.325945" stroke-linecap="round" stroke-linejoin="round"/>
<path id="Vector_75" d="M141.646 154.782L141.481 154.508L141.504 153.875" stroke="#F3F0DE" stroke-width="0.325945" stroke-linecap="round" stroke-linejoin="round"/>
<path id="Vector_76" d="M149.384 158.169L149.048 159.31L149.265 159.555" stroke="#F3F0DE" stroke-width="0.325945" stroke-linecap="round" stroke-linejoin="round"/>
<path id="Vector_77" d="M150.771 157.5L150.583 158.047L150.758 158.795" stroke="#F3F0DE" stroke-width="0.325945" stroke-linecap="round" stroke-linejoin="round"/>
<path id="Vector_78" d="M147.781 159.362L147.691 159.736L146.701 160.558L145.856 160.769L146.081 160.805L146.152 161.408L146.594 161.367L146.199 161.87L145.539 162.468L145.15 162.648L144.871 162.504" stroke="#F3F0DE" stroke-width="0.325945" stroke-linecap="round" stroke-linejoin="round"/>
<path id="Vector_79" d="M132.386 156.72L132.831 156.291" stroke="#F3F0DE" stroke-width="0.325945" stroke-linecap="round" stroke-linejoin="round"/>
<path id="Vector_80" d="M132.352 158.575L132.45 158.218L132.953 157.807" stroke="#F3F0DE" stroke-width="0.325945" stroke-linecap="round" stroke-linejoin="round"/>
</g>
<path id="Vector_81" opacity="0.07" d="M123.291 143.877C132.144 140.3 136.992 131.636 134.119 124.524C131.245 117.412 121.739 114.547 112.886 118.124C104.032 121.701 99.1847 130.366 102.058 137.477C104.931 144.589 114.438 147.454 123.291 143.877Z" fill="white"/>
</g>
</g>
</g>
<path id="Vector_82" d="M127.442 179.042C146.07 179.042 161.17 163.941 161.17 145.314C161.17 126.686 146.07 111.586 127.442 111.586C108.814 111.586 93.7139 126.686 93.7139 145.314C93.7139 163.941 108.814 179.042 127.442 179.042Z" stroke="#7EABCA" stroke-width="0.992006"/>
</g>
<path id="Vector_83" d="M127.442 135.081C139.258 135.081 148.837 125.502 148.837 113.686C148.837 101.87 139.258 92.2905 127.442 92.2905C115.625 92.2905 106.046 101.87 106.046 113.686C106.046 125.502 115.625 135.081 127.442 135.081Z" fill="url(#paint36_radial_229_33)"/>
<g id="Group_5" opacity="0.88">
<path id="Vector_84" d="M127.442 105.314V122.058" stroke="white" stroke-width="1.2093" stroke-linecap="round"/>
<path id="Vector_85" d="M119.07 113.686H135.814" stroke="white" stroke-width="1.2093" stroke-linecap="round"/>
<path id="Vector_86" d="M121.396 107.639L133.489 119.732" stroke="white" stroke-width="0.837209" stroke-linecap="round"/>
<path id="Vector_87" d="M133.489 107.639L121.396 119.732" stroke="white" stroke-width="0.837209" stroke-linecap="round"/>
<path id="Vector_88" d="M113.488 113.686H117.674M137.209 113.686H141.395M127.442 99.7324V103.918M127.442 123.453V127.639" stroke="white" stroke-width="0.651163" stroke-linecap="round"/>
</g>
<path id="Vector_89" d="M127.442 116.942C129.24 116.942 130.698 115.484 130.698 113.686C130.698 111.888 129.24 110.43 127.442 110.43C125.644 110.43 124.186 111.888 124.186 113.686C124.186 115.484 125.644 116.942 127.442 116.942Z" fill="white"/>
<path id="orbit-tail" d="M163.256 129.035C174.884 137.872 179.535 150.895 175.814 163.918C173.023 174.151 165.582 183.453 153.954 190.895C168.372 185.779 179.07 176.942 184.651 166.244C192.093 150.895 183.721 136.011 169.302 126.244L163.256 129.035Z" fill="#47AEDE"/>
</g>
</g>
<defs>
<linearGradient id="paint0_linear_229_33" x1="26.5116" y1="133.686" x2="276.279" y2="117.872" gradientUnits="userSpaceOnUse">
<stop stop-color="#25385E"/>
<stop offset="0.58" stop-color="#36577E"/>
<stop offset="1" stop-color="#9FB2C7"/>
</linearGradient>
<linearGradient id="paint1_linear_229_33" x1="27.4419" y1="152.756" x2="215.349" y2="190.43" gradientUnits="userSpaceOnUse">
<stop stop-color="#25385E"/>
<stop offset="0.45" stop-color="#386F9E"/>
<stop offset="1" stop-color="#47AEDE"/>
</linearGradient>
<linearGradient id="paint2_linear_229_33" x1="45.1165" y1="158.802" x2="160.465" y2="172.29" gradientUnits="userSpaceOnUse">
<stop stop-color="#315C87"/>
<stop offset="1" stop-color="#47AEDE"/>
</linearGradient>
<radialGradient id="paint3_radial_229_33" cx="0" cy="0" r="1" gradientUnits="userSpaceOnUse" gradientTransform="translate(116.649 130.473) scale(52.616)">
<stop stop-color="#2B7EA6"/>
<stop offset="1" stop-color="#153F68"/>
</radialGradient>
<linearGradient id="paint4_linear_229_33" x1="109.398" y1="123.383" x2="147.116" y2="155.523" gradientUnits="userSpaceOnUse">
<stop stop-color="#B8C98D"/>
<stop offset="1" stop-color="#7B9A61"/>
</linearGradient>
<linearGradient id="paint5_linear_229_33" x1="135.766" y1="156.854" x2="156.908" y2="178.378" gradientUnits="userSpaceOnUse">
<stop stop-color="#B8C98D"/>
<stop offset="1" stop-color="#7B9A61"/>
</linearGradient>
<linearGradient id="paint6_linear_229_33" x1="143.865" y1="153.624" x2="144.284" y2="154.295" gradientUnits="userSpaceOnUse">
<stop stop-color="#B8C98D"/>
<stop offset="1" stop-color="#7B9A61"/>
</linearGradient>
<linearGradient id="paint7_linear_229_33" x1="138.221" y1="155.339" x2="138.314" y2="155.79" gradientUnits="userSpaceOnUse">
<stop stop-color="#B8C98D"/>
<stop offset="1" stop-color="#7B9A61"/>
</linearGradient>
<linearGradient id="paint8_linear_229_33" x1="134.495" y1="153.203" x2="135.147" y2="155.857" gradientUnits="userSpaceOnUse">
<stop stop-color="#B8C98D"/>
<stop offset="1" stop-color="#7B9A61"/>
</linearGradient>
<linearGradient id="paint9_linear_229_33" x1="141.35" y1="134.151" x2="143.807" y2="136.593" gradientUnits="userSpaceOnUse">
<stop stop-color="#B8C98D"/>
<stop offset="1" stop-color="#7B9A61"/>
</linearGradient>
<linearGradient id="paint10_linear_229_33" x1="130.252" y1="129.425" x2="131.594" y2="131.149" gradientUnits="userSpaceOnUse">
<stop stop-color="#B8C98D"/>
<stop offset="1" stop-color="#7B9A61"/>
</linearGradient>
<linearGradient id="paint11_linear_229_33" x1="128.838" y1="125.391" x2="133.272" y2="131.927" gradientUnits="userSpaceOnUse">
<stop stop-color="#B8C98D"/>
<stop offset="1" stop-color="#7B9A61"/>
</linearGradient>
<linearGradient id="paint12_linear_229_33" x1="127.782" y1="125.414" x2="128.785" y2="126.289" gradientUnits="userSpaceOnUse">
<stop stop-color="#B8C98D"/>
<stop offset="1" stop-color="#7B9A61"/>
</linearGradient>
<linearGradient id="paint13_linear_229_33" x1="126.648" y1="125.559" x2="127.84" y2="126.576" gradientUnits="userSpaceOnUse">
<stop stop-color="#B8C98D"/>
<stop offset="1" stop-color="#7B9A61"/>
</linearGradient>
<linearGradient id="paint14_linear_229_33" x1="124.541" y1="124.086" x2="125.438" y2="125.632" gradientUnits="userSpaceOnUse">
<stop stop-color="#B8C98D"/>
<stop offset="1" stop-color="#7B9A61"/>
</linearGradient>
<linearGradient id="paint15_linear_229_33" x1="124.041" y1="123.572" x2="124.364" y2="124.371" gradientUnits="userSpaceOnUse">
<stop stop-color="#B8C98D"/>
<stop offset="1" stop-color="#7B9A61"/>
</linearGradient>
<linearGradient id="paint16_linear_229_33" x1="122.526" y1="124.741" x2="124.094" y2="126.717" gradientUnits="userSpaceOnUse">
<stop stop-color="#B8C98D"/>
<stop offset="1" stop-color="#7B9A61"/>
</linearGradient>
<linearGradient id="paint17_linear_229_33" x1="112.104" y1="129.045" x2="112.47" y2="129.652" gradientUnits="userSpaceOnUse">
<stop stop-color="#B8C98D"/>
<stop offset="1" stop-color="#7B9A61"/>
</linearGradient>
<linearGradient id="paint18_linear_229_33" x1="115.895" y1="133.825" x2="116.805" y2="134.271" gradientUnits="userSpaceOnUse">
<stop stop-color="#B8C98D"/>
<stop offset="1" stop-color="#7B9A61"/>
</linearGradient>
<linearGradient id="paint19_linear_229_33" x1="116.581" y1="136.057" x2="118.239" y2="137.222" gradientUnits="userSpaceOnUse">
<stop stop-color="#B8C98D"/>
<stop offset="1" stop-color="#7B9A61"/>
</linearGradient>
<linearGradient id="paint20_linear_229_33" x1="126.593" y1="123.019" x2="127.247" y2="123.662" gradientUnits="userSpaceOnUse">
<stop stop-color="#B8C98D"/>
<stop offset="1" stop-color="#7B9A61"/>
</linearGradient>
<linearGradient id="paint21_linear_229_33" x1="140.229" y1="153.637" x2="141.271" y2="155.929" gradientUnits="userSpaceOnUse">
<stop stop-color="#B8C98D"/>
<stop offset="1" stop-color="#7B9A61"/>
</linearGradient>
<linearGradient id="paint22_linear_229_33" x1="100.476" y1="146.47" x2="101.056" y2="146.758" gradientUnits="userSpaceOnUse">
<stop stop-color="#B8C98D"/>
<stop offset="1" stop-color="#7B9A61"/>
</linearGradient>
<linearGradient id="paint23_linear_229_33" x1="137.728" y1="151.668" x2="138.419" y2="152.141" gradientUnits="userSpaceOnUse">
<stop stop-color="#B8C98D"/>
<stop offset="1" stop-color="#7B9A61"/>
</linearGradient>
<linearGradient id="paint24_linear_229_33" x1="140.291" y1="137.599" x2="140.564" y2="138.204" gradientUnits="userSpaceOnUse">
<stop stop-color="#B8C98D"/>
<stop offset="1" stop-color="#7B9A61"/>
</linearGradient>
<linearGradient id="paint25_linear_229_33" x1="132.239" y1="130.903" x2="132.59" y2="131.126" gradientUnits="userSpaceOnUse">
<stop stop-color="#B8C98D"/>
<stop offset="1" stop-color="#7B9A61"/>
</linearGradient>
<linearGradient id="paint26_linear_229_33" x1="131.217" y1="130.738" x2="131.659" y2="131.226" gradientUnits="userSpaceOnUse">
<stop stop-color="#B8C98D"/>
<stop offset="1" stop-color="#7B9A61"/>
</linearGradient>
<linearGradient id="paint27_linear_229_33" x1="131.979" y1="127.852" x2="132.498" y2="128.321" gradientUnits="userSpaceOnUse">
<stop stop-color="#B8C98D"/>
<stop offset="1" stop-color="#7B9A61"/>
</linearGradient>
<linearGradient id="paint28_linear_229_33" x1="127.069" y1="127.368" x2="127.76" y2="128.108" gradientUnits="userSpaceOnUse">
<stop stop-color="#B8C98D"/>
<stop offset="1" stop-color="#7B9A61"/>
</linearGradient>
<linearGradient id="paint29_linear_229_33" x1="123.549" y1="125.55" x2="125.95" y2="128.72" gradientUnits="userSpaceOnUse">
<stop stop-color="#B8C98D"/>
<stop offset="1" stop-color="#7B9A61"/>
</linearGradient>
<linearGradient id="paint30_linear_229_33" x1="130.236" y1="125.376" x2="130.509" y2="126.02" gradientUnits="userSpaceOnUse">
<stop stop-color="#B8C98D"/>
<stop offset="1" stop-color="#7B9A61"/>
</linearGradient>
<linearGradient id="paint31_linear_229_33" x1="126.807" y1="124.276" x2="127.568" y2="124.868" gradientUnits="userSpaceOnUse">
<stop stop-color="#B8C98D"/>
<stop offset="1" stop-color="#7B9A61"/>
</linearGradient>
<linearGradient id="paint32_linear_229_33" x1="127.633" y1="122.186" x2="128.9" y2="123.304" gradientUnits="userSpaceOnUse">
<stop stop-color="#B8C98D"/>
<stop offset="1" stop-color="#7B9A61"/>
</linearGradient>
<linearGradient id="paint33_linear_229_33" x1="127.973" y1="121.136" x2="130.908" y2="123.158" gradientUnits="userSpaceOnUse">
<stop stop-color="#B8C98D"/>
<stop offset="1" stop-color="#7B9A61"/>
</linearGradient>
<linearGradient id="paint34_linear_229_33" x1="130.235" y1="119.272" x2="139.366" y2="130.041" gradientUnits="userSpaceOnUse">
<stop stop-color="#B8C98D"/>
<stop offset="1" stop-color="#7B9A61"/>
</linearGradient>
<linearGradient id="paint35_linear_229_33" x1="126.018" y1="125.614" x2="126.427" y2="125.94" gradientUnits="userSpaceOnUse">
<stop stop-color="#B8C98D"/>
<stop offset="1" stop-color="#7B9A61"/>
</linearGradient>
<radialGradient id="paint36_radial_229_33" cx="0" cy="0" r="1" gradientUnits="userSpaceOnUse" gradientTransform="translate(127.442 113.686) scale(21.3953 21.3953)">
<stop stop-color="white"/>
<stop offset="0.23" stop-color="white" stop-opacity="0.9"/>
<stop offset="0.55" stop-color="#A8DFF5" stop-opacity="0.36"/>
<stop offset="1" stop-color="#A8DFF5" stop-opacity="0"/>
</radialGradient>
</defs>
</svg>
