<svg xmlns="http://www.w3.org/2000/svg" viewBox="0 0 1200 560" role="img">
<defs>
<marker id="arr" viewBox="0 0 10 10" refX="9" refY="5" markerWidth="7" markerHeight="7" orient="auto-start-reverse">
<path d="M 0 0 L 10 5 L 0 10 z" fill="#7eabca"/>
</marker>
</defs>
<rect width="1200" height="560" fill="#0a1628"/>
<circle cx="150" cy="280" r="14" fill="#9bc3df"/><text x="150" y="330" font-family="system-ui, -apple-system, 'Segoe UI', sans-serif" font-size="21" font-weight="400" fill="#8fa6b8" text-anchor="middle">analysis now</text><path d="M 164 280 C 420 280 640 194 1020 90" fill="none" stroke="#7eabca" stroke-width="2.2" opacity="0.55"/><circle cx="1020" cy="90" r="9" fill="#122339" stroke="#9bc3df" stroke-width="2.5"/><path d="M 164 280 C 420 280 640 230 1035 170" fill="none" stroke="#7eabca" stroke-width="2.2" opacity="0.6200000000000001"/><circle cx="1035" cy="170" r="9" fill="#122339" stroke="#9bc3df" stroke-width="2.5"/><path d="M 164 280 C 420 280 640 266 1045 250" fill="none" stroke="#7eabca" stroke-width="2.2" opacity="0.6900000000000001"/><circle cx="1045" cy="250" r="9" fill="#122339" stroke="#9bc3df" stroke-width="2.5"/><path d="M 164 280 C 420 280 640 302 1040 330" fill="none" stroke="#7eabca" stroke-width="2.2" opacity="0.76"/><circle cx="1040" cy="330" r="9" fill="#122339" stroke="#9bc3df" stroke-width="2.5"/><path d="M 164 280 C 420 280 640 338 1030 410" fill="none" stroke="#7eabca" stroke-width="2.2" opacity="0.8300000000000001"/><circle cx="1030" cy="410" r="9" fill="#122339" stroke="#9bc3df" stroke-width="2.5"/><path d="M 164 280 C 420 280 640 370 1015 480" fill="none" stroke="#7eabca" stroke-width="2.2" opacity="0.9000000000000001"/><circle cx="1015" cy="480" r="9" fill="#122339" stroke="#9bc3df" stroke-width="2.5"/><text x="1075" y="95" font-family="system-ui, -apple-system, 'Segoe UI', sans-serif" font-size="19" font-weight="400" fill="#8fa6b8" text-anchor="start">member 1</text><text x="1075" y="485" font-family="system-ui, -apple-system, 'Segoe UI', sans-serif" font-size="19" font-weight="400" fill="#8fa6b8" text-anchor="start">member N</text><text x="520" y="120" font-family="system-ui, -apple-system, 'Segoe UI', sans-serif" font-size="22" font-weight="400" fill="#e7edf0" text-anchor="middle">start from noise, denoise into one plausible future,</text><text x="520" y="152" font-family="system-ui, -apple-system, 'Segoe UI', sans-serif" font-size="22" font-weight="400" fill="#e7edf0" text-anchor="middle">repeat with new noise for each member</text><text x="600" y="522" font-family="system-ui, -apple-system, 'Segoe UI', sans-serif" font-size="17" font-weight="400" fill="#8fa6b8" text-anchor="middle">Sharp members, honest spread · original schematic, Aetheris Vision</text>
</svg>
